<?xml version="1.0" encoding="utf-8"?>
<!-- Generator: Adobe Illustrator 20.1.0, SVG Export Plug-In . SVG Version: 6.00 Build 0)  -->
<svg version="1.1" id="Layer_1" xmlns="http://www.w3.org/2000/svg" xmlns:xlink="http://www.w3.org/1999/xlink" x="0px" y="0px"
	 viewBox="0 0 400 185" style="enable-background:new 0 0 400 185;" xml:space="preserve">
<style type="text/css">
	.st0{fill:none;}
	.st1{fill:#454955;}
	.st2{fill:#E6E6E6;}
	.st3{fill:#342E37;}
	.st4{fill:#C2C2C2;}
	.st5{fill:#FFFFFF;}
	.st6{fill:#FF0000;}
</style>
<g>
	<path class="st0" d="M129,138.6l58.1-100.4l7.8,14.4L154,125h83.3h0l-42.4-73.8l-7.8-13.6L129,138.5L129,138.6L129,138.6L129,138.6
		L129,138.6l-7.2,12.4l7.3-12.3L129,138.6z M206.2,84.3l4.5,5.6l7.5,6.1l-7.2,6.1l-4.7,5.6l-11.7,3l-11.7-3L178,102l-7.2-6.1
		l7.5-6.1l4.5-5.6l11.7-3L206.2,84.3z M129,138.6L129,138.6l-0.2,0.4L129,138.6z"/>
	<polygon class="st0" points="152,125 152,124.9 152,124.8 152,124.6 152,124.9 144.2,138 144.2,138 152.1,125 152,125 	"/>
	<polygon class="st0" points="195,24.6 194.8,24.3 194.4,24.9 	"/>
	<polygon points="260.5,138 144.8,138 144.7,138 144.6,138 144.2,138 144.2,138 144.2,138 152,124.9 152,124.6 152,124.8 152,124.9 
		152,125 152,125 152.1,125 152,124.9 152,124.8 152,125 152.4,125 152.4,125 152.4,125 152.7,125 153,125 153.2,125 153.5,125 
		153.7,125 154,125 194.8,52.6 187.1,38.4 129,138.7 129,138.8 121.6,151 270.5,151 276,138 262.5,138 	"/>
	<polygon points="129,138.6 128.8,138.9 129,138.6 	"/>
	<circle cx="276" cy="138" r="0"/>
	<polygon class="st1" points="128.7,138.6 128.7,138.6 128.7,138.6 128.8,138.5 187.1,37.6 194.8,51 237.3,124.5 252.8,124.5 
		195.1,24.5 195,24.6 194.4,24.9 194.8,24.3 187,10.8 111.3,141.8 121.3,151.5 121.6,151 128.7,138.7 	"/>
	<polygon class="st2" points="128.7,138.7 128.7,138.7 128.7,138.6 128.7,138.6 	"/>
	<polygon class="st3" points="276,138 268.5,125 268.7,124.5 268.2,124.5 200.1,6.6 187,10.8 194.8,24.3 195,24.6 195.1,24.5 
		252.8,124.5 237.3,124.5 237.3,124.5 237.3,124.6 152.4,124.6 152.4,124.6 152.4,124.5 152.4,124.5 152.4,124.6 152.4,124.6 
		151.8,125.6 152.2,124.9 152.1,125 144.2,138 144.2,138 144.6,138 144.7,138 151.3,126.5 152.4,124.6 144.8,138 260.5,138 
		262.5,138 276,138 276,138 276,138 276,138 276,138 276,138 276,138 276,138 	"/>
	<polygon class="st4" points="152.4,124.6 151.3,126.5 144.7,138 144.8,138 	"/>
	<polygon class="st4" points="153.7,124.5 153.5,124.5 153.2,124.5 153,124.5 152.7,124.5 152.4,124.5 152.4,124.5 152.4,124.6 
		152.4,124.6 237.3,124.6 237.3,124.5 154,124.5 	"/>
	<polygon class="st4" points="152.4,124.5 152.2,124.9 151.8,125.6 152.4,124.6 152.4,124.6 152.4,124.5 152.4,124.5 	"/>
	<path d="M182.8,84.3l-4.5,5.6l-7.5,6.1l7.2,6.1l4.7,5.6l11.7,3l11.7-3l4.7-5.6l7.2-6.1l-7.5-6.1l-4.5-5.6l-11.7-3L182.8,84.3z
		 M206.1,95.8c0,6.5-5.2,11.7-11.7,11.7c-6.5,0-11.7-5.2-11.7-11.7s5.2-11.7,11.7-11.7C200.9,84.1,206.1,89.4,206.1,95.8z"/>
	<path class="st5" d="M182.7,95.8c0,6.5,5.2,11.7,11.7,11.7c6.5,0,11.7-5.2,11.7-11.7s-5.2-11.7-11.7-11.7
		C188,84.1,182.7,89.4,182.7,95.8z M200.5,95.8c0,3.4-2.7,6.1-6.1,6.1s-6.1-2.7-6.1-6.1s2.7-6.1,6.1-6.1S200.5,92.5,200.5,95.8z"/>
	<circle class="st6" cx="194.4" cy="95.8" r="6.1"/>
</g>
<g>
	<path d="M95.5,116.6c0,11.5,0,21,0.6,26c0.4,3.5,1.1,6.1,4.7,6.6c1.7,0.2,4.3,0.5,5.4,0.5c0.7,0,1,0.4,1,0.7c0,0.6-0.6,1-1.9,1
		c-6.6,0-14.2-0.4-14.8-0.4s-8.2,0.4-11.8,0.4c-1.3,0-1.9-0.2-1.9-1c0-0.4,0.2-0.7,1-0.7c1.1,0,2.5-0.2,3.6-0.5
		c2.4-0.5,3-3.1,3.5-6.6c0.6-5,0.6-14.5,0.6-26V104c0-0.5-0.4-0.7-0.7-0.7H33.8c-0.4,0-0.7,0.1-0.7,0.7v12.6c0,11.5,0,21,0.6,26
		c0.4,3.5,1.1,6.1,4.7,6.6c1.7,0.2,4.3,0.5,5.4,0.5c0.7,0,1,0.4,1,0.7c0,0.6-0.6,1-1.9,1c-6.6,0-14.2-0.4-14.8-0.4
		s-8.2,0.4-11.8,0.4c-1.3,0-1.9-0.2-1.9-1c0-0.4,0.2-0.7,1-0.7c1.1,0,2.5-0.2,3.6-0.5c2.4-0.5,3-3.1,3.5-6.6c0.6-5,0.6-14.5,0.6-26
		V95.4c0-18.7,0-22.1-0.2-25.9c-0.2-4.1-1.2-6-5.2-6.8c-1-0.2-3-0.4-4.1-0.4c-0.5,0-1-0.2-1-0.7c0-0.7,0.6-1,1.9-1
		c5.4,0,13,0.4,13.6,0.4s8.2-0.4,11.8-0.4c1.3,0,1.9,0.2,1.9,1c0,0.5-0.5,0.7-1,0.7c-0.8,0-1.6,0.1-3,0.4c-3.2,0.6-4.2,2.6-4.4,6.8
		c-0.2,3.8-0.2,7.2-0.2,25.9V98c0,0.6,0.4,0.7,0.7,0.7h50.9c0.4,0,0.7-0.1,0.7-0.7v-2.5c0-18.7,0-22.1-0.2-25.9
		c-0.2-4.1-1.2-6-5.2-6.8c-1-0.2-3-0.4-4.1-0.4c-0.5,0-1-0.2-1-0.7c0-0.7,0.6-1,1.9-1c5.4,0,13,0.4,13.6,0.4s8.2-0.4,11.8-0.4
		c1.3,0,1.9,0.2,1.9,1c0,0.5-0.5,0.7-1,0.7c-0.8,0-1.6,0.1-3,0.4c-3.2,0.6-4.2,2.6-4.4,6.8c-0.2,3.8-0.2,7.2-0.2,25.9V116.6z"/>
</g>
<g>
	<path d="M353.4,120.8c0-9.7-0.6-11-5.4-12.4c-1-0.2-3-0.4-4.1-0.4c-0.5,0-1-0.2-1-0.7c0-0.7,0.6-1,1.9-1c5.4,0,13,0.4,13.6,0.4
		c0.6,0,8.2-0.4,11.8-0.4c1.3,0,1.9,0.2,1.9,1c0,0.5-0.5,0.7-1,0.7c-0.8,0-1.6,0.1-3,0.4c-3.2,0.6-4.2,2.6-4.4,6.8
		c-0.2,3.8-0.2,7.4-0.2,12.5v13.4c0,5.4-0.1,5.6-1.6,6.5c-7.7,4.1-18.5,5.4-25.4,5.4c-9.1,0-26.2-1.2-39.5-12.8
		c-7.3-6.4-14.3-19.2-14.3-34.2c0-19.2,9.4-32.8,20-39.5c10.8-6.7,22.7-7.6,31.9-7.6c7.6,0,16.1,1.6,18.4,2c2.5,0.6,6.7,1.1,9.7,1.2
		c1.2,0.1,1.4,0.6,1.4,1.1c0,1.7-0.8,5-0.8,17c0,1.9-0.2,2.5-1.1,2.5c-0.6,0-0.7-0.7-0.8-1.8c-0.1-1.7-0.7-5-2.5-7.9
		c-3-4.6-12.7-9.7-28.2-9.7c-7.6,0-16.6,0.7-25.7,7.9c-7,5.5-11.9,16.4-11.9,30.5c0,16.9,8.5,29.2,12.7,33.2
		c9.5,9.2,20.4,12.8,31.4,12.8c4.3,0,10.6-0.7,13.7-2.5c1.6-0.8,2.4-2.2,2.4-4.2V120.8z"/>
</g>
</svg>
