<?xml version="1.0" encoding="utf-8"?>
<!-- Generator: Adobe Illustrator 20.1.0, SVG Export Plug-In . SVG Version: 6.00 Build 0)  -->
<svg version="1.1" id="Layer_1" xmlns="http://www.w3.org/2000/svg" xmlns:xlink="http://www.w3.org/1999/xlink" x="0px" y="0px"
	 viewBox="0 0 400 185" style="enable-background:new 0 0 400 185;" xml:space="preserve">
<style type="text/css">
	.st0{fill:none;}
	.st1{fill:#454955;}
	.st2{fill:#E6E6E6;}
	.st3{fill:#342E37;}
	.st4{fill:#C2C2C2;}
	.st5{fill:#FFFFFF;}
	.st6{fill:#FF0000;}
	.st7{font-family:'TrajanPro-Regular';}
	.st8{font-size:126.5526px;}
</style>
<g>
	<path class="st0" d="M135.3,139.3l61.7-105.9l8.3,15.2L161.9,125h88.5h0l-45.1-77.8l-8.3-14.3l-61.9,106.3l-0.1,0.1v0v0v0l-7.5,13
		L135.3,139.3L135.3,139.3z M217.3,81.9l4.8,5.9l7.9,6.4l-7.7,6.4l-5,5.9l-12.4,3.2l-12.4-3.2l-5-5.9l-7.7-6.4l7.9-6.4l4.8-5.9
		l12.4-3.2L217.3,81.9z M135.3,139.2L135.3,139.2l-0.2,0.4L135.3,139.2z"/>
	<polygon class="st0" points="160,124.8 160,124.8 160,124.6 160,124.4 159.9,125 151.5,139 151.5,139 159.9,125 160,125 	"/>
	<polygon class="st0" points="205.4,19 205.2,18.6 204.8,19.3 	"/>
	<polygon points="275,139 152.1,139 152.1,139 152,139 151.5,139 151.5,139 151.5,139 159.9,125 160,124.4 160,124.6 160,124.8 
		160,124.8 160,125 159.9,125 159.9,124.9 160,124.6 160,125 160.2,125 160.3,125 160.3,125 160.5,125 160.8,125 161.1,125 
		161.4,125 161.6,125 161.9,125 205.3,48.6 197.1,33.5 135.3,139.3 135.4,139.2 127.5,152 285.7,152 291.5,139 277.2,139 	"/>
	<polygon points="135.3,139.2 135.1,139.6 135.3,139.2 	"/>
	<circle cx="291.5" cy="138.6" r="0"/>
	<polygon class="st1" points="135.1,139.3 135.1,139.3 135.1,139.3 135.2,139.1 197.1,32.7 205.3,46.9 250.4,124.4 266.9,124.4 
		205.6,18.9 205.4,19 204.8,19.3 205.2,18.6 197,4.4 116.6,142.6 127.2,152.8 127.5,152.3 135.1,139.3 	"/>
	<polygon class="st2" points="135.1,139.3 135.1,139.3 135.1,139.3 135.1,139.3 	"/>
	<polygon class="st3" points="291.5,138.6 283.6,124.9 283.8,124.4 283.3,124.4 210.9,0 197,4.4 205.2,18.6 205.4,19 205.6,18.9 
		266.9,124.4 250.4,124.4 250.4,124.4 250.4,124.5 160.2,124.5 160.2,124.5 160.3,124.4 160.2,124.4 160.2,124.4 160.2,124.4 
		159.6,125.5 160,124.8 159.9,124.9 151.5,138.6 151.5,138.6 152,138.6 152.1,138.6 159,126.5 160.2,124.4 152.1,138.6 275,138.6 
		277.2,138.6 291.5,138.6 291.5,138.6 291.5,138.6 291.5,138.6 291.5,138.6 291.5,138.6 291.5,138.6 291.5,138.6 	"/>
	<polygon class="st4" points="160.2,124.4 159,126.5 152.1,138.6 152.1,138.6 	"/>
	<polygon class="st4" points="161.6,124.4 161.4,124.4 161.1,124.4 160.8,124.4 160.5,124.4 160.3,124.4 160.3,124.4 160.2,124.5 
		160.2,124.5 250.4,124.5 250.4,124.4 161.9,124.4 	"/>
	<polygon class="st4" points="160.2,124.4 160,124.8 159.6,125.5 160.2,124.4 160.2,124.4 160.2,124.4 160.2,124.4 	"/>
	<path d="M192.5,81.9l-4.8,5.9l-7.9,6.4l7.7,6.4l5,5.9l12.4,3.2l12.4-3.2l5-5.9l7.7-6.4l-7.9-6.4l-4.8-5.9l-12.4-3.2L192.5,81.9z
		 M217.3,94.1c0,6.8-5.6,12.3-12.4,12.3c-6.9,0-12.4-5.5-12.4-12.3s5.6-12.3,12.4-12.3C211.7,81.8,217.3,87.3,217.3,94.1z"/>
	<path class="st5" d="M192.4,94.1c0,6.8,5.6,12.3,12.4,12.3c6.9,0,12.4-5.5,12.4-12.3s-5.6-12.3-12.4-12.3
		C198,81.8,192.4,87.3,192.4,94.1z M211.3,94.1c0,3.5-2.9,6.4-6.5,6.4s-6.5-2.9-6.5-6.4s2.9-6.4,6.5-6.4S211.3,90.6,211.3,94.1z"/>
	<ellipse class="st6" cx="204.8" cy="94.1" rx="6.5" ry="6.4"/>
</g>
<text transform="matrix(1.0073 0 0 1 30.0002 152.2988)" class="st7 st8">H</text>
<text transform="matrix(1.0073 0 0 1 281.7897 152.0002)" class="st7 st8">G</text>
</svg>
